<?xml version="1.0" standalone="no"?>
<!DOCTYPE svg PUBLIC "-//W3C//DTD SVG 20010904//EN"
 "http://www.w3.org/TR/2001/REC-SVG-20010904/DTD/svg10.dtd">
<svg version="1.0" xmlns="http://www.w3.org/2000/svg"
 width="1600.000000pt" height="1600.000000pt" viewBox="0 0 1600.000000 1600.000000"
 preserveAspectRatio="xMidYMid meet">
<metadata>
Created by potrace 1.11, written by Peter Selinger 2001-2013
</metadata>
<g transform="translate(0.000000,1600.000000) scale(0.100000,-0.100000)"
fill="#000000" stroke="none">
<path d="M7883 15689 c-118 -22 -213 -102 -256 -218 -14 -38 -16 -119 -17
-736 0 -691 0 -693 22 -755 23 -63 76 -130 131 -164 149 -92 358 -44 445 102
53 90 52 75 49 832 l-2 705 -27 52 c-41 78 -83 120 -152 152 -67 32 -129 42
-193 30z"/>
<path d="M3102 13829 c-110 -14 -208 -87 -256 -189 -16 -35 -21 -64 -21 -135
0 -79 4 -96 27 -140 34 -62 33 -61 548 -586 546 -555 536 -546 595 -577 44
-24 61 -27 145 -27 84 0 101 3 145 27 182 97 235 324 112 483 -17 22 -120 130
-228 240 -108 110 -261 265 -338 345 -358 367 -498 503 -535 522 -60 31 -133
45 -194 37z"/>
<path d="M12589 13733 c-30 -8 -73 -25 -97 -39 -24 -15 -265 -247 -535 -517
-452 -453 -492 -496 -520 -556 -26 -59 -29 -73 -25 -146 5 -96 37 -165 106
-226 110 -96 289 -107 400 -23 36 27 957 946 997 995 73 88 87 241 31 348 -67
127 -223 198 -357 164z"/>
<path d="M7629 13146 c-2 -2 -47 -7 -99 -10 -101 -7 -151 -12 -209 -21 -20 -2
-54 -7 -76 -11 -285 -41 -765 -180 -1036 -300 -232 -103 -548 -264 -590 -300
-8 -8 -19 -14 -23 -14 -7 0 -257 -168 -266 -179 -3 -3 -32 -26 -65 -50 -50
-37 -188 -148 -232 -186 -121 -107 -255 -235 -348 -336 -94 -101 -118 -130
-216 -256 -51 -65 -103 -129 -117 -142 -24 -24 -131 -183 -169 -252 -10 -19
-44 -77 -75 -129 -142 -239 -247 -453 -322 -655 -21 -55 -42 -109 -47 -120
-36 -80 -142 -472 -174 -645 -3 -14 -7 -36 -10 -50 -3 -14 -8 -41 -11 -60 -3
-19 -9 -60 -14 -90 -6 -30 -12 -77 -15 -105 -4 -27 -8 -61 -10 -74 -27 -155
-27 -717 0 -906 2 -16 9 -70 15 -120 16 -127 19 -146 40 -270 10 -60 22 -126
25 -145 5 -34 10 -58 21 -110 2 -14 9 -49 15 -78 12 -61 109 -356 181 -552
158 -427 348 -778 616 -1140 154 -209 391 -495 607 -736 6 -6 35 -39 65 -74
30 -35 60 -68 65 -74 6 -6 46 -51 89 -101 44 -49 93 -106 110 -125 87 -98 290
-339 415 -494 115 -143 213 -350 227 -479 6 -54 5 -471 -1 -657 -5 -148 -5
-710 0 -800 5 -87 14 -207 21 -265 11 -104 16 -140 19 -145 2 -3 6 -25 10 -49
11 -75 55 -213 94 -296 113 -239 290 -366 605 -434 118 -26 145 -29 289 -37
86 -5 117 -10 117 -20 0 -7 9 -37 20 -66 54 -145 227 -239 520 -283 69 -11
386 -14 464 -4 328 39 527 154 568 327 l13 52 110 1 c132 1 169 4 260 25 93
22 188 60 253 101 29 18 57 33 62 33 6 0 10 4 10 8 0 4 13 15 29 25 43 25 156
141 205 210 74 105 138 247 152 335 3 20 8 40 10 43 1 3 6 34 9 70 4 35 8 70
11 78 18 57 21 337 13 1331 l-3 375 54 145 c29 80 70 181 91 225 34 73 133
214 213 303 110 125 293 327 336 371 14 14 35 39 47 54 12 16 67 77 122 135
55 59 109 118 121 132 12 14 38 43 59 65 54 58 253 294 347 411 263 327 500
711 757 1224 51 102 84 179 85 202 2 21 21 93 43 160 84 259 166 571 194 741
3 18 10 55 15 82 5 28 12 74 15 104 4 30 8 62 10 71 28 145 28 754 -1 990 -73
614 -187 1039 -390 1455 -220 450 -541 912 -844 1215 -133 133 -166 163 -315
286 -379 313 -823 592 -1151 722 -55 22 -119 50 -142 62 -37 19 -67 29 -182
61 -19 5 -42 12 -50 14 -306 87 -682 161 -930 181 -36 3 -78 7 -95 10 -36 6
-631 15 -636 10z m611 -660 c14 -2 57 -7 95 -11 531 -53 1108 -236 1465 -463
110 -70 315 -206 320 -211 3 -4 34 -28 70 -54 402 -291 653 -554 915 -957 48
-74 96 -147 106 -162 11 -15 19 -29 19 -32 0 -2 20 -39 45 -81 96 -162 184
-353 251 -545 32 -93 82 -261 90 -309 3 -12 12 -53 20 -90 18 -76 19 -81 29
-141 4 -25 9 -54 11 -65 10 -53 34 -228 39 -290 4 -38 9 -81 11 -95 13 -67 16
-478 5 -615 -11 -134 -32 -310 -46 -372 -11 -50 -24 -114 -29 -138 -3 -11 -9
-39 -15 -62 -6 -24 -16 -62 -22 -85 -55 -223 -192 -633 -246 -736 -183 -349
-346 -622 -490 -819 -51 -70 -98 -135 -105 -143 -7 -9 -40 -49 -73 -90 -54
-68 -209 -252 -245 -290 -8 -9 -35 -39 -59 -66 -47 -52 -226 -247 -276 -299
-16 -18 -88 -93 -158 -168 -71 -75 -147 -154 -168 -177 -22 -23 -52 -61 -67
-83 -14 -23 -54 -76 -87 -117 -34 -41 -72 -91 -85 -110 -13 -19 -27 -37 -30
-40 -4 -3 -29 -43 -57 -90 -52 -89 -119 -237 -151 -337 -11 -33 -37 -92 -58
-131 l-39 -70 -345 3 c-190 2 -592 7 -895 10 -302 3 -692 8 -865 10 -173 2
-357 4 -408 4 -65 1 -94 5 -96 14 -32 103 -63 190 -92 253 -19 42 -43 101 -53
130 -22 60 -60 119 -140 213 -31 36 -97 116 -146 176 -137 169 -461 544 -581
675 -38 42 -122 137 -251 285 -457 527 -716 923 -888 1355 -21 52 -43 109 -50
125 -26 61 -164 481 -169 515 -5 35 -23 143 -31 190 -19 101 -35 196 -40 240
-8 66 -17 133 -20 152 -26 137 -26 683 0 816 2 13 7 50 10 83 4 33 9 70 11 82
3 12 11 58 19 102 22 119 81 354 121 485 103 327 309 738 513 1020 86 119 201
269 246 319 160 182 329 346 465 451 25 19 54 43 65 53 36 34 248 182 342 240
299 184 733 364 1098 456 164 41 376 76 540 91 81 7 609 4 655 -4z m-610
-9175 l405 -6 -110 -23 c-60 -12 -119 -25 -130 -27 -56 -12 -374 -77 -400 -81
-16 -3 -61 -12 -100 -21 -38 -8 -83 -17 -99 -20 -16 -2 -144 -29 -284 -59
-141 -30 -260 -54 -264 -54 -10 0 -10 104 -1 218 l6 82 286 -1 c157 -1 468 -4
691 -8z m1584 -372 c4 -127 5 -233 3 -235 -4 -4 -2209 -636 -2262 -649 -90
-21 -243 -70 -256 -81 -14 -13 -17 -7 -28 53 -17 102 -31 292 -31 445 0 122 2
137 18 142 9 3 64 14 122 25 58 11 159 32 225 46 65 14 133 28 150 31 16 3 46
9 65 14 19 5 52 12 74 16 51 8 74 12 94 18 9 3 34 7 56 11 21 3 42 7 46 10 4
2 27 7 51 10 24 3 59 10 79 15 19 5 51 12 70 15 19 3 42 8 50 10 8 2 31 7 50
10 19 3 42 8 50 10 8 2 26 6 40 9 56 10 323 69 445 97 72 17 137 32 145 34 8
2 71 17 140 35 69 17 145 35 170 41 25 5 122 29 215 53 94 25 179 45 191 45
21 1 21 -4 28 -230z m0 -731 c-13 -149 -41 -278 -70 -330 -33 -57 -154 -102
-328 -123 -27 -3 -52 -7 -56 -10 -4 -3 -214 -7 -466 -10 -253 -3 -589 -7 -749
-9 -159 -2 -279 0 -265 4 30 10 813 236 885 256 28 7 266 76 530 153 264 76
490 140 503 140 22 1 22 -1 16 -71z"/>
<path d="M1140 9016 c-127 -41 -222 -157 -234 -287 -5 -52 12 -133 37 -182 25
-47 86 -106 140 -135 l52 -27 745 0 c742 0 745 0 792 22 181 83 246 305 139
471 -41 63 -116 119 -186 140 -55 16 -1435 15 -1485 -2z"/>
<path d="M13133 9008 c-202 -67 -280 -322 -152 -496 37 -51 119 -105 181 -121
34 -8 256 -11 782 -11 668 0 738 2 784 18 71 24 132 70 170 127 112 169 46
389 -141 475 l-62 29 -750 0 c-734 0 -751 0 -812 -21z"/>
<path d="M11483 5332 c-178 -64 -263 -263 -185 -435 26 -56 71 -104 461 -492
729 -726 730 -727 801 -754 87 -33 192 -27 269 14 128 70 194 213 166 359 -16
80 -52 121 -552 618 -681 678 -652 650 -733 689 -45 21 -169 22 -227 1z"/>
<path d="M4138 5293 c-60 -15 -99 -35 -141 -72 -32 -29 -287 -285 -482 -486
-70 -71 -231 -236 -359 -365 -279 -281 -291 -299 -291 -435 0 -109 22 -163 94
-235 83 -83 213 -113 326 -75 82 28 46 -7 660 619 522 532 522 532 550 586 82
161 18 357 -143 439 -60 30 -148 40 -214 24z"/>
</g>
</svg>
